<svg version="1" xmlns="http://www.w3.org/2000/svg" viewBox="0 0 46 40"><g fill="#868686"><path d="M8.2 3.3C7 4.6 6 6.2 6 6.8c0 .7-1.1 1.7-2.4 2.3-3.2 1.5-4.2 5.4-2.1 8.5 1.4 2.2 1.4 2.6 0 4.8-2.1 3.1-1.1 7 2.1 8.5 1.3.6 2.4 1.7 2.4 2.4s1 2.3 2.3 3.5c3.2 3 8.7 2.9 11.5-.1 2.1-2.2 2.2-3.3 2.2-16.8C22 6 21.9 5.3 19.7 3.2 16.5.2 11 .3 8.2 3.3zm10.5.9c1.5 1.2 2.6 6.6 2.1 9.8l-.3 2.2-2.7-2.2c-1.6-1.2-2.8-3-2.8-4.1 0-1-.4-1.9-1-1.9-2.9 0 1.2 7.8 4.5 8.6 3.6.9 3.6 5.9 0 6.8-3.3.8-7.4 8.6-4.5 8.6.6 0 1-.9 1-1.9 0-1.1 1.2-2.9 2.8-4.1l2.7-2.2.3 3.4c.4 4.8-1.3 8.7-4.5 9.9-3.7 1.4-7.2-.3-8.6-4.1-.6-1.6-1.9-3.1-2.8-3.3-2.9-.8-4-4.1-2.3-6.5.8-1.2 2.2-2.2 3-2.2.8 0 1.4-.5 1.4-1 0-.6-.6-1-1.4-1-.8 0-2.2-1-3-2.2-1.8-2.5-.6-5.7 2.5-6.5 1-.3 1.9-1.2 1.9-2 0-.7 1.1-2.5 2.6-3.9 1.9-2 3.1-2.4 5.2-1.9 1.5.4 3.2 1.1 3.9 1.7z"/><path d="M5.6 13.7c-.3.4.8 1.4 2.4 2.4 4 2.5 3.9 5.4-.2 7.9-2.9 1.7-3 2-1.1 2 2.2 0 5.3-2.4 5.3-4.1 0-.5 1.6-.9 3.5-.9s3.5-.5 3.5-1c0-.6-1.5-1-3.4-1-2.5 0-3.6-.5-4.1-1.8-.6-2-4.9-4.5-5.9-3.5zM26.2 3.3C24.1 5.5 24 6.6 24 20.1c0 13.9.1 14.6 2.3 16.7 3.2 3 8.7 2.9 11.5-.1 1.2-1.3 2.2-2.9 2.2-3.5 0-.7 1.1-1.7 2.4-2.3 3.2-1.5 4.2-5.4 2.1-8.5-1.4-2.2-1.4-2.6 0-4.8 2.1-3.1 1.1-7-2.1-8.5-1.3-.6-2.4-1.7-2.4-2.4s-1-2.3-2.3-3.5c-3.2-3-8.7-2.9-11.5.1zm10.3 1.2C37.9 5.8 39 7.6 39 8.3c0 .8.9 1.7 1.9 2 3.1.8 4.3 4 2.5 6.5-.8 1.2-2.2 2.2-3 2.2-.8 0-1.4.4-1.4 1 0 .5.6 1 1.4 1 .8 0 2.2 1 3 2.2 1.7 2.4.6 5.7-2.3 6.5-.9.2-2.2 1.7-2.8 3.3-1.4 3.8-4.9 5.5-8.6 4.1-3.2-1.2-4.9-5.1-4.5-9.9l.3-3.4 2.8 2.2c1.5 1.2 2.7 3 2.7 4.1 0 1 .5 1.9 1 1.9 2.9 0-1.2-7.8-4.5-8.6-3.6-.9-3.6-5.9 0-6.8C30.8 15.8 34.9 8 32 8c-.5 0-1 .9-1 1.9 0 1.1-1.2 2.9-2.7 4.1l-2.8 2.2-.3-3.4c-.4-4.6 1.3-8.7 4-9.8 3.6-1.4 4.7-1.2 7.3 1.5z"/><path d="M37.3 14.3c-1.3.5-2.5 1.8-2.8 2.8-.5 1.4-1.6 1.9-4.1 1.9-1.9 0-3.4.4-3.4 1 0 .5 1.6 1 3.5 1s3.5.4 3.5.9c0 1.7 3.1 4.1 5.3 4.1 1.9 0 1.8-.3-1-2-4.2-2.5-4.3-5.4-.2-7.9 3.4-2.1 2.7-3.5-.8-1.8z"/></g></svg>