<svg version="1" xmlns="http://www.w3.org/2000/svg" width="45.333" height="45.333" viewBox="0 0 34 34"><g fill="#868686"><path d="M2.2 2.3C1 3.6 0 5.7 0 7.1.1 16.8 17.3 34 27 34c2.9 0 7-3.7 7-6.2 0-1.7-5.4-6.8-7.2-6.8-.6 0-1.9.7-2.9 1.6-2.2 2-4.2 1-9.7-5-4.6-5-4.9-5.8-2.7-7.6 2.1-1.8 1.9-3.4-1.1-6.9C7.3-.6 5.1-.8 2.2 2.3zm6.5.9c2.7 2.6 2.9 4.5.6 7-1.5 1.7-1.5 2.1 1.4 6.1 1.7 2.3 4.9 5.5 7.2 7.1 3.8 2.8 4.2 2.9 5.9 1.3 2.6-2.3 4.5-2.1 7.2.8l2.4 2.6-2.6 2.5C28.4 33 28 33.1 24.2 32 15.8 29.4 4.6 18.3 2.1 9.8 1 6.1 1 5.6 3.1 3.4 5.8.5 5.8.5 8.7 3.2zM18 1.1c-1.1.8-.7.9 1.8.5C27.2.3 34.1 6.9 32.4 13.7c-.5 1.8-.4 2.4.5 1.9 1.8-1.1 1.3-6.8-.9-10.4C29.1.5 21.8-1.6 18 1.1z"/><path d="M20 6c-1.1.7-.8 1 1.5 1 3.7 0 5.5 1.6 5.5 4.8 0 1.3.4 2 1 1.7 1.7-1 1.1-3.5-1.5-6-2.6-2.7-4.1-3-6.5-1.5z"/></g></svg>