<?xml version="1.0" encoding="UTF-8"?>
<svg enable-background="new 0 0 464 464" version="1.1" viewBox="0 0 464 464" xml:space="preserve" xmlns="http://www.w3.org/2000/svg">
	<path d="m383.39 413.99l-1.526-5.227c-0.737-2.525-3.197-4.073-5.727-3.751l-1.61-12.077-3.335-25.015v-3e-3l-0.387-2.906c-1.752-13.142-9.895-24.558-23.304-31.262l-15.714-7.857c-2.545-1.272-4.488 0.365-6.357 2.444l-34.485-12.688c-6.533-2.178-10.94-8.292-10.94-15.179v-25.802l34.461-14.359c17.885-7.454 29.536-24.931 29.536-44.309v-72c0-22.092-17.909-56-40-56h-144c-22.092 0-40 33.908-40 56v72c0 19.377 11.651 36.854 29.538 44.308l34.462 14.359v25.801c0 6.887-4.407 13.001-10.94 15.179l-34.485 12.688c-1.869-2.079-3.812-3.717-6.357-2.444l-15.714 7.857c-13.41 6.705-21.552 18.121-23.304 31.262l-0.387 2.906v3e-3l-3.335 25.015-1.61 12.077c-2.53-0.322-4.989 1.226-5.727 3.751l-1.526 5.227c-0.817 2.799 0.79 5.729 3.589 6.546l1.535 0.448-2.112 15.844c-1.922 14.389 9.27 27.173 23.785 27.173h249.18c14.515 0 25.708-12.784 23.789-27.172l-2.112-15.844 1.535-0.448c2.798-0.815 4.405-3.746 3.588-6.545z" fill="#F6B47B"/>
	<path d="m184 273v27.469c0 5.693-3.017 10.852-7.752 13.701 63.754 11.015 100.19-36.802 103.5-41.17h-95.752z" fill="#E2A071"/>
	<path d="m314.46 260.31l-51.694 21.539c-9.75 4.062-20.207 6.154-30.769 6.154s-21.02-2.092-30.77-6.154l-51.691-21.538c-17.887-7.454-29.538-24.931-29.538-44.309v-72c0-22.091 17.909-56 40-56h144c22.091 0 40 33.909 40 56v72c0 19.378-11.651 36.855-29.538 44.308z" fill="#FDC88E"/>
	<path d="m176 192c-4.4 0-8-3.6-8-8v-8c0-4.4 3.6-8 8-8s8 3.6 8 8v8c0 4.4-3.6 8-8 8z" fill="#623F33"/>
	<path d="m288 192c-4.4 0-8-3.6-8-8v-8c0-4.4 3.6-8 8-8s8 3.6 8 8v8c0 4.4-3.6 8-8 8z" fill="#623F33"/>
		<path d="m232 248.22c-14.223 0-27.527-3.5-36.5-9.605-3.652-2.484-4.602-7.461-2.113-11.113 2.48-3.648 7.461-4.598 11.113-2.113 6.289 4.277 16.57 6.832 27.5 6.832s21.211-2.555 27.5-6.832c3.66-2.492 8.629-1.539 11.113 2.113 2.488 3.652 1.539 8.629-2.113 11.113-8.972 6.105-22.277 9.605-36.5 9.605z" fill="#E2A071"/>
	<path d="m120 153.14v62.86c0 19.377 11.651 36.855 29.538 44.308l51.69 21.538c2.53 1.054 5.112 1.962 7.727 2.749-22.844-16.711-38.05-31.32-46.96-40.872-6.482-6.95-9.995-16.121-9.995-25.625v-44.711c22.9-7.993 82.145-34.247 82.967-77.386 0.078-4.077 0.016-7.712-0.164-10.953-37.651 51.465-89.812 64.961-114.8 68.092z" fill="#F6B47B"/>
	<path d="m370.5 266.09c0-16.951-13.975-24.114-13.975-38.549s18.158-18.318 18.158-39.958c0-14.466-6.446-25.697-10.722-36.047 24.379-105.66-67.073-151.54-91.961-151.54-26 0-40 8-40 8s-14-8-40-8c-24.888 0-116.34 45.873-91.961 151.54-4.276 10.35-10.722 21.581-10.722 36.047 0 21.641 18.158 25.523 18.158 39.958s-13.975 21.599-13.975 38.549c0 16.951 13.46 25.159 17.833 37.912 2 5.833-0.333 23.33-0.333 23.33s14.25-23.512 6.75-45.111 1.2-23.923 8-33.355c10.25-14.217 8.86-30.168 0.489-45.67-5.406-10.012-3.983-19.683 3.594-26.416 7.975-7.086 9.845-19.315 9.856-19.393 37.874-11.088 92.311-33.301 92.311-69.388 0 36.087 54.437 58.3 92.31 69.388 0.012 0.077 1.882 12.307 9.856 19.393 7.577 6.733 9 16.404 3.594 26.416-8.371 15.502-9.761 31.454 0.489 45.67 6.8 9.432 15.5 11.756 8 33.355-7.5 21.598 6.75 45.111 6.75 45.111s-2.333-17.498-0.333-23.33c4.374-12.753 17.834-20.961 17.834-37.911z" fill="#6E4439"/>
	<path d="m370.8 365.01c-1.752-13.142-9.895-24.558-23.304-31.262l-15.714-7.857c-2.905-1.452-5.025 0.886-7.146 3.345-42.636 49.431-92.635 70.767-92.635 70.767h-2e-3s-49.999-21.336-92.635-70.767c-2.121-2.459-4.242-4.797-7.146-3.345l-15.714 7.857c-13.41 6.705-21.552 18.121-23.304 31.262l-6.512 48.836c21.132 7.277 57.31 18.153 57.31 18.153v32h176v-32s36.178-10.876 57.313-18.153l-6.511-48.836z" fill="#57B9DD"/>
	<path d="m143.8 429.56c-0.489-9.513-3.665-18.705-9.402-26.355l-37.557-50.076c-1.813 3.734-3.087 7.708-3.645 11.887l-6.341 47.561 56.945 16.983z" fill="#43A0C5"/>
	<path d="m80.612 413.99c-0.817 2.799 0.79 5.73 3.588 6.546l59.8 17.444v-5.981c0-3.779-0.594-7.481-1.461-11.113l-53.856-15.71c-2.798-0.816-5.728 0.79-6.544 3.588l-1.527 5.226z" fill="#258CAC"/>
	<path d="m320.2 429.56c0.489-9.513 3.665-18.705 9.402-26.355l37.557-50.076c1.813 3.734 3.087 7.708 3.645 11.887l6.341 47.561-56.945 16.983z" fill="#43A0C5"/>
	<path d="m383.39 413.99c0.817 2.799-0.79 5.73-3.588 6.546l-59.8 17.444v-5.981c0-3.779 0.594-7.481 1.461-11.113l53.856-15.71c2.798-0.816 5.728 0.79 6.544 3.588l1.527 5.226z" fill="#258CAC"/>
	<path d="m192 0c-24.888 0-116.34 45.873-91.961 151.54-4.276 10.35-10.722 21.581-10.722 36.047 0 21.641 18.158 25.523 18.158 39.958s-13.975 21.599-13.975 38.549c0 16.951 13.46 25.159 17.833 37.912 2 5.833-0.333 23.33-0.333 23.33s14.25-23.512 6.75-45.111 1.2-23.923 8-33.355c10.25-14.217 8.86-30.168 0.489-45.67-5.406-10.012-3.983-19.683 3.594-26.416 7.975-7.086 9.845-19.315 9.856-19.393l-8e-3 -1e-3c3e-3 -1e-3 5e-3 -2e-3 8e-3 -2e-3 -22.6-104.02 67.503-149.3 92.311-149.38v-4e-3s-14-8-40-8z" fill="#5E342E"/>
</svg>