<?xml version="1.0" encoding="UTF-8"?>
<svg enable-background="new 0 0 464 464" version="1.1" viewBox="0 0 464 464" xml:space="preserve" xmlns="http://www.w3.org/2000/svg">
	<path d="m400 400s-58.904 24-168 24-168-24-168-24l21.157-264.46c6.124-76.541 70.026-135.54 146.81-135.54h0.064c76.786 0 140.69 58.994 146.81 135.54l21.158 264.46z" fill="#E69F5F"/>
	<path d="M274.813,6.378C261.245,2.26,246.891,0,232.031,0h-0.063C155.182,0,91.279,58.994,85.156,135.535    L63.999,400c0,0,28.876,11.71,83.467,18.769L274.813,6.378z" fill="#E09156"/>
	<path d="m383.39 413.99l-1.526-5.227c-0.737-2.525-3.197-4.073-5.727-3.751l-5.334-40.002c-1.752-13.142-9.902-24.561-21.76-30.49l-17.232-8.616c-2.567-1.284-5.51-0.145-6.766 2.29l-34.103-12.548c-6.534-2.178-10.94-8.292-10.94-15.179v-25.802l34.461-14.359c17.888-7.452 29.539-24.929 29.539-44.307v-8c13.255 0 24-10.745 24-24s-10.745-24-24-24v-16c0-22.091-17.909-56-40-56h-144c-22.091 0-40 33.909-40 56v16c-13.255 0-24 10.745-24 24s10.745 24 24 24v8c0 19.378 11.651 36.855 29.538 44.308l34.462 14.36v25.801c0 6.887-4.407 13.001-10.94 15.179l-34.101 12.547c-1.242-2.438-4.179-3.583-6.742-2.302l-15.714 7.857c-13.41 6.705-21.552 18.121-23.304 31.262l-5.334 40.002c-2.53-0.322-4.989 1.226-5.727 3.751l-1.526 5.227c-0.817 2.799 0.79 5.729 3.588 6.546l11.8 3.441v24.021c0 8.836 7.164 16 16 16h240c8.836 0 16-7.164 16-16v-24.021l11.799-3.442c2.798-0.816 4.405-3.747 3.589-6.546z" fill="#FFD7A3"/>
	<path d="m280 274.67l-96 1e-3v25.801c0 5.693-3.017 10.852-7.752 13.701 66.925 11.563 103.75-39.503 103.75-39.503z" fill="#FDC88E"/>
	<path d="m344 160v-16c0-22.091-17.909-56-40-56h-144c-22.091 0-40 33.909-40 56v16c-13.255 0-24 10.745-24 24s10.745 24 24 24v8c0 19.378 11.651 36.855 29.538 44.308l51.691 21.538c9.75 4.063 20.208 6.154 30.77 6.154s21.019-2.092 30.769-6.154l51.694-21.539c17.887-7.452 29.538-24.929 29.538-44.307v-8c13.255 0 24-10.745 24-24s-10.745-24-24-24z" fill="#FFE1B2"/>
	<path d="m288 192c-4.4 0-8-3.6-8-8v-8c0-4.4 3.6-8 8-8s8 3.6 8 8v8c0 4.4-3.601 8-8 8z" fill="#623F33"/>
	<path d="m232 248.22c-14.223 0-27.527-3.5-36.5-9.605-3.652-2.484-4.602-7.461-2.113-11.113 2.48-3.648 7.461-4.598 11.113-2.113 6.289 4.277 16.57 6.832 27.5 6.832s21.211-2.555 27.5-6.832c3.66-2.492 8.629-1.539 11.113 2.113 2.488 3.652 1.539 8.629-2.113 11.113-8.971 6.105-22.276 9.605-36.5 9.605z" fill="#E4B07B"/>
	<path d="m162 243.72c-6.482-6.949-9.995-16.121-9.995-25.625v-34.422c43.629-3.305 102.53-32.204 137.82-59.856l-9.824-9.824s-71 46-160 46v4e-3c-13.255 0-24 10.745-24 24s10.745 24 24 24v8c0 19.378 11.651 36.855 29.538 44.308l51.69 21.538c2.53 1.054 5.112 1.962 7.727 2.749-22.845-16.712-38.051-31.32-46.96-40.872z" fill="#FFD7A3"/>
	<path d="m377.19 412.94l-6.39-47.925c-1.752-13.142-9.902-24.561-21.76-30.49l-17.232-8.616c-2.919-1.46-6.327 0.212-7.184 3.362-11.09 40.761-48.352 70.736-92.627 70.736-44.285 0-81.555-29.99-92.635-70.767-0.852-3.134-4.242-4.797-7.146-3.345l-15.714 7.857c-13.41 6.705-21.552 18.121-23.304 31.262l-6.512 48.836c21.134 7.278 57.312 18.154 57.312 18.154v32h176v-32l57.192-19.064z" fill="#FF6473"/>
	<path d="m143.8 429.56c-0.489-9.513-3.665-18.705-9.402-26.355l-37.557-50.076c-1.813 3.734-3.087 7.708-3.645 11.887l-6.341 47.561 56.945 16.983z" fill="#F05467"/>
	<path d="m80.612 413.99c-0.817 2.799 0.79 5.73 3.588 6.546l59.799 17.444v-5.981c0-3.779-0.594-7.481-1.461-11.113l-53.856-15.71c-2.798-0.816-5.728 0.79-6.544 3.588l-1.526 5.226z" fill="#D4445A"/>
	<path d="m320.2 429.56c0.489-9.513 3.665-18.705 9.402-26.355l37.557-50.076c1.813 3.734 3.087 7.708 3.645 11.887l6.341 47.561-56.945 16.983z" fill="#F05467"/>
	<path d="m383.39 413.99c0.817 2.799-0.79 5.73-3.588 6.546l-59.8 17.444v-5.981c0-3.779 0.594-7.481 1.461-11.113l53.856-15.71c2.798-0.816 5.728 0.79 6.544 3.588l1.527 5.226z" fill="#D4445A"/>
	<path d="m176 192c-4.4 0-8-3.6-8-8v-8c0-4.4 3.6-8 8-8s8 3.6 8 8v8c0 4.4-3.6 8-8 8z" fill="#623F33"/>
	<path d="m103.73 112.98l0.27 53.078c75.501 0 138.1-23.591 179.17-44.834-12.761 13.843-31.957 32.686-59.169 54.78 0 0 71.23-28.324 111.13-63.501v-3e-3c0-52.191-42.309-94.5-94.5-94.5h-42.403c-52.378 0-94.765 42.603-94.498 94.98z" fill="#E69F5F"/>
	<path d="m269.79 22.588c-9.184-2.977-18.981-4.591-29.157-4.591h-42.403c-52.379 0-94.765 42.602-94.499 94.98l0.27 53.079c22.016 0 42.926-2.016 62.534-5.385 72.271-55.346 103.14-137.77 103.26-138.08z" fill="#E09156"/>
</svg>