<?xml version="1.0" encoding="UTF-8"?>
<svg enable-background="new 0 0 496.941 496.941" version="1.1" viewBox="0 0 496.941 496.941" xml:space="preserve" xmlns="http://www.w3.org/2000/svg">
	<path d="m7.529 335.06h21.082v64.753c0 11.294 9.035 20.329 20.329 20.329h51.2c11.294 0 20.329-9.035 20.329-20.329v-64.753h21.082c4.518 0 7.529-3.012 7.529-7.529v-112.19c0-25.6-18.824-46.682-42.165-46.682h-65.503c-23.341 0-41.412 21.082-41.412 46.682v112.19c0 4.518 3.012 7.53 7.529 7.53zm7.53-119.72c0-17.318 12.047-31.624 26.353-31.624h65.506c15.059 0 27.106 14.306 27.106 31.624v104.66h-13.553v-54.965c0-4.518-3.012-7.529-7.529-7.529s-7.529 3.012-7.529 7.529v134.78c0 3.012-2.259 5.271-5.271 5.271h-18.071v-73.788c0-4.518-3.012-7.529-7.529-7.529-4.518 0-7.529 3.012-7.529 7.529v73.788h-18.072c-3.012 0-5.271-2.259-5.271-5.271v-134.78c0-4.518-3.012-7.529-7.529-7.529s-7.529 3.012-7.529 7.529v54.965h-13.553v-104.66z"/>
	<path d="m74.541 159.62c25.6 0 45.929-20.329 45.929-45.929s-20.329-45.929-45.929-45.929-45.929 20.329-45.929 45.929c0 25.599 20.329 45.929 45.929 45.929zm0-76.8c17.318 0 30.871 14.306 30.871 30.871s-13.553 30.871-30.871 30.871-30.871-14.306-30.871-30.871c1e-3 -16.566 13.554-30.871 30.871-30.871z"/>
	<path d="m176.94 267.29h21.082v64.753c0 11.294 9.035 20.329 20.329 20.329h51.2c11.294 0 20.329-9.035 20.329-20.329v-64.753h21.082c4.518 0 7.529-3.012 7.529-7.529v-111.44c0-25.6-18.823-46.682-42.165-46.682h-65.506c-23.341 0-41.412 21.082-41.412 46.682v112.19c3e-3 3.765 3.015 6.777 7.532 6.777zm7.53-118.96c0-17.318 12.047-31.624 26.353-31.624h65.506c15.059 0 27.106 14.306 27.106 31.624v104.66h-13.553v-54.965c0-4.518-3.012-7.529-7.529-7.529-4.518 0-7.529 3.012-7.529 7.529v134.78c0 3.012-2.259 5.271-5.271 5.271h-18.071v-74.541c0-4.518-3.012-7.529-7.529-7.529s-7.529 3.012-7.529 7.529v73.788h-18.071c-3.012 0-5.271-2.259-5.271-5.271v-134.02c0-4.518-3.012-7.529-7.529-7.529s-7.529 3.012-7.529 7.529v54.965h-13.553v-104.66z"/>
	<path d="m243.95 92.612c25.6 0 45.929-20.329 45.929-45.929 0-25.601-21.082-46.683-45.929-46.683s-45.929 20.329-45.929 45.929 20.329 46.683 45.929 46.683zm0-77.553c17.318 0 30.871 14.306 30.871 30.871 0 17.318-13.553 30.871-30.871 30.871s-30.871-14.306-30.871-30.871 13.553-30.871 30.871-30.871z"/>
	<path d="m489.41 293.65h-167.15c-4.518 0-7.529 3.012-7.529 7.529v66.259h-149.84c-4.518 0-7.529 3.012-7.529 7.529v50.447h-149.84c-4.518 0-7.529 3.012-7.529 7.529v56.471c0 4.518 3.012 7.529 7.529 7.529h481.88c4.518 0 7.529-3.012 7.529-7.529v-188.24c1e-3 -3.764-3.011-7.529-7.528-7.529zm-332.05 188.24h-142.31v-41.412h142.31v41.412zm157.36 0h-142.3v-99.388h142.31v99.388zm167.15 0h-152.09v-173.18h152.09v173.18z"/>
	<path d="m340.33 117.46h30.871v97.882c0 4.518 3.012 7.529 7.529 7.529h60.988c4.518 0 7.529-3.012 7.529-7.529v-97.882h30.871c3.012 0 5.271-1.506 6.776-3.765 1.506-2.259 1.506-5.271-0.753-7.529l-68.516-103.15c-1.506-1.506-3.765-3.012-6.024-3.012s-4.518 1.506-6.023 3.012l-70.024 102.4c-1.506 2.259-1.506 5.271-0.753 7.529 0.753 2.259 4.518 4.518 7.529 4.518zm69.271-96.377l54.965 81.318h-24.847c-4.518 0-7.529 3.012-7.529 7.529v97.882h-45.929v-97.882c0-4.518-3.012-7.529-7.529-7.529h-24.847l55.716-81.318z"/>
	<path d="m439.72 264.28h-60.988c-4.518 0-7.529 3.012-7.529 7.529s3.012 7.529 7.529 7.529h60.988c4.518 0 7.529-3.012 7.529-7.529s-3.765-7.529-7.529-7.529z"/>
	<path d="m439.72 236.42h-60.988c-4.518 0-7.529 3.012-7.529 7.529s3.012 7.529 7.529 7.529h60.988c4.518 0 7.529-3.012 7.529-7.529 0-3.765-3.765-7.529-7.529-7.529z"/>
</svg>