<?xml version="1.0" encoding="UTF-8"?>
<svg enable-background="new 0 0 464 464" version="1.1" viewBox="0 0 464 464" xml:space="preserve" xmlns="http://www.w3.org/2000/svg">
	<path d="m232 0c-49.449 0-160 26.236-160 168 0 33.667 7.087 72.872 24 120 89.972 15.877 182.03 15.877 272 0 16.913-47.128 24-86.334 24-120 0-141.76-110.55-168-160-168z" fill="#9D6E48"/>
	<path d="M72,168c0,33.667,7.087,72.872,24,120c40.099,7.076,80.615,10.816,121.173,11.585   c0,0-63.506-151.252-29.245-293.719C135.622,19.418,72,60.446,72,168z" fill="#8D5F3D"/>
	<path d="m380.38 436.83l-9.576-71.817c-1.752-13.142-9.902-24.562-21.761-30.491l-17.232-8.616c-2.567-1.284-5.51-0.145-6.766 2.29l-34.103-12.548c-6.533-2.178-10.94-8.292-10.94-15.179v-25.802l34.461-14.359c17.888-7.452 29.539-24.929 29.539-44.307 13.255 0 24-10.745 24-24s-10.745-24-24-24v-24c0-22.092-17.909-40-40-40h-144c-22.091 0-40 17.909-40 40v24c-13.255 0-24 10.745-24 24s10.745 24 24 24c0 19.378 11.651 36.855 29.538 44.308l34.462 14.359v25.801c0 6.887-4.407 13.001-10.94 15.179l-34.101 12.547c-1.242-2.438-4.18-3.583-6.742-2.302l-15.714 7.857c-13.41 6.705-21.552 18.121-23.304 31.262l-0.388 2.908v1e-3l-9.188 68.908c-1.918 14.388 9.275 27.172 23.79 27.172h249.18c14.515 0 25.708-12.784 23.79-27.171z" fill="#FFD7A3"/>
	<path d="m184 274v26.468c0 5.693-3.017 10.852-7.752 13.701 63.753 11.015 100.19-35.801 103.5-40.17h-95.752v1e-3z" fill="#FDC88E"/>
	<path d="m344 168v-24c0-22.092-17.909-40-40-40h-144c-22.091 0-40 17.909-40 40v24c-13.255 0-24 10.745-24 24s10.745 24 24 24c0 19.378 11.651 36.855 29.538 44.308l51.691 21.538c9.75 4.063 20.208 6.154 30.77 6.154s21.019-2.091 30.769-6.154l51.694-21.539c17.887-7.452 29.538-24.929 29.538-44.307 13.255 0 24-10.745 24-24s-10.745-24-24-24z" fill="#FFE1B2"/>
	<path d="m176 192c-4.4 0-8-3.6-8-8v-8c0-4.4 3.6-8 8-8s8 3.6 8 8v8c0 4.4-3.6 8-8 8z" fill="#623F33"/>
	<path d="m288 192c-4.4 0-8-3.6-8-8v-8c0-4.4 3.6-8 8-8s8 3.6 8 8v8c0 4.4-3.6 8-8 8z" fill="#623F33"/>
	<path d="m232 248.22c-14.223 0-27.527-3.5-36.5-9.605-3.652-2.484-4.602-7.461-2.113-11.113 2.48-3.648 7.461-4.598 11.113-2.113 6.289 4.277 16.57 6.832 27.5 6.832s21.211-2.555 27.5-6.832c3.66-2.492 8.629-1.539 11.113 2.113 2.488 3.652 1.539 8.629-2.113 11.113-8.972 6.105-22.277 9.605-36.5 9.605z" fill="#E4B07B"/>
	<path d="m120 168c-13.255 0-24 10.745-24 24s10.745 24 24 24c0 19.378 11.651 36.855 29.538 44.308l51.69 21.538c2.53 1.054 5.112 1.962 7.727 2.749-22.844-16.711-38.05-31.32-46.96-40.872-6.482-6.95-9.995-16.121-9.995-25.625v-57.919c24.637 0.776 77.746 2.802 123-21.389v-30.79h-155v60z" fill="#FFD7A3"/>
	<path d="m349.04 334.52l-17.232-8.616c-2.92-1.46-6.327 0.212-7.184 3.362-11.09 40.761-48.352 70.736-92.626 70.736-44.285 0-81.555-29.99-92.635-70.767-0.852-3.134-4.242-4.797-7.146-3.345l-15.714 7.857c-13.41 6.705-21.552 18.121-23.304 31.262l-9.576 71.817c-1.918 14.388 9.275 27.172 23.789 27.172h249.18c14.515 0 25.708-12.784 23.789-27.172l-9.576-71.817c-1.752-13.14-9.902-24.56-21.761-30.489z" fill="#8DB9E2"/>
	<path d="M96.843,353.124c-1.813,3.734-3.087,7.708-3.645,11.887l-9.576,71.817   C81.704,451.216,92.897,464,107.412,464H144v-32c0-10.386-3.369-20.491-9.6-28.8L96.843,353.124z" fill="#6AA2DE"/>
	<path d="m367.16 353.12c1.813 3.734 3.087 7.708 3.645 11.887l9.576 71.817c1.918 14.388-9.275 27.172-23.79 27.172h-36.588v-32c0-10.386 3.368-20.491 9.6-28.8l37.557-50.076z" fill="#6AA2DE"/>
	<path d="m117 105v31s33.371 13 90.357 8l8.214-32 8.214 32c22.589-2 32.857-8 32.857-8l8.214-16 8.214 24s29.435-0.333 49.286-8l8.214-16 16.43 40v-57s-33.884-48-118.08-48c-83.854 0-111.92 50-111.92 50z" fill="#9D6E48"/>
	<path d="m203.4 56.659c-64.134 8.667-86.404 48.341-86.404 48.341v31s20.954 8.106 57.897 9.03c0 0-0.352-52.781 28.507-88.371z" fill="#8D5F3D"/>
	<path d="m343.79 112c-2.645 0-5.23-1.313-6.758-3.703-16.859-26.492-59.066-44.297-105.03-44.297s-88.172 17.805-105.03 44.297c-2.367 3.719-7.32 4.813-11.043 2.453-3.73-2.375-4.828-7.32-2.457-11.047 19.988-31.406 66.516-51.703 118.53-51.703s98.543 20.297 118.53 51.703c2.371 3.727 1.273 8.672-2.457 11.047-1.328 0.844-2.816 1.25-4.285 1.25z" fill="#FFC84A"/>
	<path d="m347 156h-83c-6.617 0-12 5.383-12 12v0.432c-5.086-5.198-12.172-8.432-20-8.432s-14.914 3.234-20 8.432v-0.432c0-6.617-5.383-12-12-12h-83c-2.209 0-4 1.791-4 4s1.791 4 4 4h23.7c-0.445 1.253-0.7 2.596-0.7 4v24c0 6.617 5.383 12 12 12h48c6.617 0 12-5.383 12-12v-4c0-11.027 8.973-20 20-20s20 8.973 20 20v4c0 6.617 5.383 12 12 12h48c6.617 0 12-5.383 12-12v-24c0-1.404-0.255-2.747-0.7-4h23.7c2.209 0 4-1.791 4-4s-1.791-4-4-4zm-143 36c0 2.203-1.793 4-4 4h-48c-2.207 0-4-1.797-4-4v-24c0-2.203 1.793-4 4-4h48c2.207 0 4 1.797 4 4v24zm112-24v24c0 2.203-1.793 4-4 4h-48c-2.207 0-4-1.797-4-4v-24c0-2.203 1.793-4 4-4h48c2.207 0 4 1.797 4 4z" fill="#734A3E"/>
</svg>