<?xml version="1.0" encoding="UTF-8"?>
<svg enable-background="new 0 0 498.447 498.447" version="1.1" viewBox="0 0 498.447 498.447" xml:space="preserve" xmlns="http://www.w3.org/2000/svg">
	<path d="m105.41 225.88c28.612 0 52.706-23.341 52.706-51.953s-23.341-51.953-52.706-51.953c-28.612 0-52.706 23.341-52.706 51.953s24.094 51.953 52.706 51.953zm0-88.847c20.329 0 37.647 16.565 37.647 36.894s-16.565 36.894-37.647 36.894-37.647-16.565-37.647-36.894 17.317-36.894 37.647-36.894z"/>
	<path d="m35.388 335.81h142.31c6.024 0 11.294-5.271 11.294-11.294v-33.129c0-33.129-27.106-60.235-60.235-60.235h-45.177c-33.129 0-60.235 27.106-60.235 60.235v33.129c0.753 6.776 6.024 11.294 12.047 11.294zm3.765-43.671c0-24.847 20.329-45.176 45.176-45.176h45.176c24.847 0 45.177 20.329 45.177 45.176v29.365h-135.53v-29.365z"/>
	<path d="m63.247 423.91c17.318-3.012 30.118-18.071 30.118-36.141 0-20.329-16.565-36.894-36.894-36.894s-36.894 16.565-36.894 36.894c0 18.071 13.553 33.129 30.871 36.141-28.613 3.765-50.448 27.859-50.448 56.47v6.024c0 6.024 5.271 11.294 11.294 11.294h91.859c6.023 0 11.294-5.271 11.294-11.294v-6.024c0-28.611-22.588-52.705-51.2-56.47zm-29.365-36.141c0-12.047 9.788-21.835 21.835-21.835s21.835 9.788 21.835 21.835-9.787 21.835-21.834 21.835-21.836-9.788-21.836-21.835zm65.506 94.87h-84.329v-2.259c0-23.341 18.823-42.165 42.165-42.165s42.165 18.824 42.165 42.165v2.259z"/>
	<path d="m191.25 423.91c17.318-3.012 30.118-18.071 30.118-36.141 0-20.329-16.565-36.894-36.894-36.894s-36.894 16.565-36.894 36.894c0 18.071 13.553 33.129 30.871 36.141-27.859 3.765-49.694 27.106-49.694 56.471v6.024c0 6.024 5.271 11.294 11.294 11.294h91.859c6.023 0 11.294-5.271 11.294-11.294v-6.024c-1.507-28.612-23.342-52.706-51.954-56.471zm-29.365-36.141c0-12.047 9.788-21.835 21.835-21.835s21.835 9.788 21.835 21.835-9.788 21.835-21.835 21.835-21.835-9.788-21.835-21.835zm64.753 94.87h-84.329v-2.259c0-23.341 18.824-42.165 42.165-42.165s42.165 18.824 42.165 42.165v2.259z"/>
	<path d="m318.49 423.91c17.318-3.012 30.118-18.071 30.118-36.141 0-20.329-16.565-36.894-36.894-36.894s-36.894 16.565-36.894 36.894c0 18.071 13.553 33.129 30.871 36.141-27.86 3.765-49.695 27.106-49.695 56.47v6.024c0 6.024 5.271 11.294 11.294 11.294h91.859c6.024 0 11.294-5.271 11.294-11.294v-6.024c-0.753-28.611-23.341-52.705-51.953-56.47zm-29.365-36.141c0-12.047 9.788-21.835 21.835-21.835s21.835 9.788 21.835 21.835-9.788 21.835-21.835 21.835-21.835-9.788-21.835-21.835zm65.506 94.87h-84.329v-2.259c0-23.341 18.823-42.165 42.165-42.165s42.165 18.824 42.165 42.165v2.259z"/>
	<path d="m446.49 423.91c17.318-3.012 30.118-18.071 30.118-36.141 0-20.329-16.565-36.894-36.894-36.894s-36.894 16.565-36.894 36.894c0 18.071 13.553 33.129 30.871 36.141-27.86 3.765-49.695 27.106-49.695 56.47v6.024c0 6.024 5.271 11.294 11.294 11.294h91.859c6.024 0 11.294-5.271 11.294-11.294v-6.024c-1.506-28.611-23.341-52.705-51.953-56.47zm-29.365-36.141c0-12.047 9.788-21.835 21.835-21.835s21.835 9.788 21.835 21.835-9.788 21.835-21.835 21.835-21.835-9.788-21.835-21.835zm64.753 94.87h-84.329v-2.259c0-23.341 18.824-42.165 42.165-42.165s42.165 18.824 42.165 42.165v2.259z"/>
	<path d="m283.11 180.71h177.69c16.565 0 29.365-13.553 29.365-29.365v-121.22c-0.753-15.812-13.553-29.365-30.118-29.365h-176.94c-16.565 0-29.365 13.553-29.365 29.365v51.953l-67.012 60.235c-2.259 2.259-3.012 6.024-1.506 9.035 1.506 3.012 4.518 4.518 8.282 4.518l60.988-10.541v6.024c-0.752 16.564 12.048 29.364 28.613 29.364zm-67.765-44.424l50.447-45.177c1.506-1.506 2.259-3.765 2.259-5.271v-55.716c0-8.282 6.776-14.306 14.306-14.306h176.94c9.035 0 15.059 6.776 15.059 14.306v121.22c0 8.282-6.776 14.306-14.306 14.306h-176.94c-8.282 0-14.306-6.776-14.306-14.306v-15.059c0-2.259-0.753-4.518-3.012-6.024-1.506-1.506-3.765-2.259-6.024-1.506l-44.423 7.529z"/>
	<path d="m336.56 57.976h79.059c4.518 0 7.529-3.012 7.529-7.529 0-4.518-3.012-7.529-7.529-7.529h-79.059c-4.518 0-7.529 3.012-7.529 7.529-1e-3 4.518 3.764 7.529 7.529 7.529z"/>
	<path d="m336.56 98.635h79.059c4.518 0 7.529-3.012 7.529-7.529 0-4.518-3.012-7.529-7.529-7.529h-79.059c-4.518 0-7.529 3.012-7.529 7.529-1e-3 3.765 3.764 7.529 7.529 7.529z"/>
	<path d="m336.56 138.54h79.059c4.518 0 7.529-3.012 7.529-7.529 0-4.518-3.012-7.529-7.529-7.529h-79.059c-4.518 0-7.529 3.012-7.529 7.529-1e-3 4.517 3.764 7.529 7.529 7.529z"/>
</svg>