<?xml version="1.0" encoding="UTF-8"?>
<svg enable-background="new 0 0 464 464" version="1.1" viewBox="0 0 464 464" xml:space="preserve" xmlns="http://www.w3.org/2000/svg">
	<path d="m380.38 436.83l-9.576-71.817c-1.752-13.142-9.902-24.562-21.761-30.491l-17.232-8.616c-2.567-1.284-5.51-0.145-6.766 2.29l-34.103-12.548c-6.533-2.178-10.94-8.292-10.94-15.179v-25.802l34.461-14.359c17.889-7.452 29.54-24.929 29.54-44.307v-8c13.255 0 24-10.745 24-24s-10.745-24-24-24v-16c0-22.092-17.909-56-40-56h-144c-22.092 0-40 33.909-40 56v72c0 19.378 11.651 36.855 29.538 44.308l34.462 14.359v25.801c0 6.887-4.407 13.001-10.94 15.179l-34.101 12.547c-1.242-2.438-4.18-3.583-6.742-2.302l-15.714 7.857c-13.41 6.705-21.552 18.121-23.304 31.262l-9.576 71.817c-1.919 14.388 9.273 27.172 23.788 27.172h249.18c14.515 0 25.708-12.784 23.79-27.171z" fill="#FFD7A3"/>
	<path d="m392 312s-24-139.33-24-192l-96 144 104 56c-5 9.5-9.529 22.472 8 40 15.5 15.5 24 48 24 48 22-82-16-96-16-96z" fill="#9D6E48"/>
	<path d="m374.88 329.3l22.087-10.888c3.963-1.954 5.591-6.75 3.636-10.712-1.954-3.96-6.748-5.587-10.708-3.634l-22.087 10.888c-3.963 1.954-5.591 6.75-3.636 10.712 1.953 3.96 6.747 5.587 10.708 3.634z" fill="#FFB04D"/>
	<path d="m192 264l-96-144c0 52.667-24 192-24 192s-38 14-16 96c0 0 8.5-32.5 24-48 17.529-17.529 13-30.5 8-40l104-56z" fill="#8D5F3D"/>
	<path d="m89.122 329.3l-22.087-10.888c-3.963-1.954-5.591-6.75-3.636-10.712 1.954-3.96 6.748-5.587 10.708-3.634l22.087 10.888c3.963 1.954 5.591 6.75 3.636 10.712-1.954 3.96-6.748 5.587-10.708 3.634z" fill="#FFB04D"/>
	<path d="M279,274h-95v26.468c0,5.759-3.186,10.831-8.017,13.659C243.076,325.871,279,274,279,274z" fill="#FDC88E"/>
	<path d="m349.04 334.52l-17.232-8.616c-2.92-1.46-6.327 0.212-7.184 3.362-11.09 40.761-48.352 70.736-92.626 70.736-44.285 0-81.555-29.99-92.635-70.767-0.852-3.134-4.242-4.797-7.146-3.345l-15.714 7.857c-13.41 6.705-21.552 18.121-23.304 31.262l-9.576 71.817c-1.918 14.388 9.275 27.172 23.789 27.172h249.18c14.515 0 25.708-12.784 23.789-27.172l-9.576-71.817c-1.752-13.14-9.902-24.56-21.761-30.489z" fill="#FFC84A"/>
	<path d="m96.842 353.12c-1.813 3.734-3.087 7.708-3.645 11.887l-9.576 71.817c-1.917 14.388 9.276 27.172 23.791 27.172h36.588v-32c0-10.386-3.369-20.491-9.6-28.8l-37.558-50.076z" fill="#FFB04D"/>
	<path d="m367.16 353.12c1.813 3.734 3.087 7.708 3.645 11.887l9.576 71.817c1.918 14.388-9.275 27.172-23.79 27.172h-36.587v-32c0-10.386 3.368-20.491 9.6-28.8l37.556-50.076z" fill="#FFB04D"/>
	<path d="m344 160v-16c0-22.092-17.909-56-40-56h-144c-22.092 0-40 33.909-40 56v72c0 19.378 11.651 36.855 29.538 44.308l51.691 21.538c9.75 4.063 20.208 6.154 30.77 6.154s21.019-2.091 30.769-6.154l51.694-21.539c17.887-7.452 29.538-24.929 29.538-44.307v-8c13.255 0 24-10.745 24-24s-10.745-24-24-24z" fill="#FFE1B2"/>
	<path d="m288 192c-4.4 0-8-3.6-8-8v-8c0-4.4 3.6-8 8-8s8 3.6 8 8v8c0 4.4-3.601 8-8 8z" fill="#623F33"/>
	<path d="m232 248.22c-14.223 0-27.527-3.5-36.5-9.605-3.652-2.484-4.601-7.461-2.113-11.113 2.48-3.648 7.461-4.598 11.113-2.113 6.289 4.277 16.57 6.832 27.5 6.832s21.211-2.555 27.5-6.832c3.66-2.492 8.629-1.539 11.113 2.113 2.488 3.652 1.539 8.629-2.113 11.113-8.971 6.105-22.276 9.605-36.5 9.605z" fill="#E4B07B"/>
	<path d="m251 113.92l-19-31.915s-112 80.667-112 110v24c0 19.378 11.651 36.855 29.538 44.308l51.69 21.538c2.53 1.054 5.112 1.962 7.727 2.749-22.844-16.711-38.05-31.32-46.96-40.872-6.482-6.95-9.995-16.121-9.995-25.625v-10.098c0-50.557 78.252-58.189 99-94.085z" fill="#FFD7A3"/>
	<g fill="#9D6E48">
		<path d="m104 166.06s-0.015 3e-3 -0.037 8e-3c0.013-3e-3 0.024-5e-3 0.037-8e-3z"/>
		<path d="m272 0c-26 0-40 8-40 8s-14-8-40-8-124.67 50.055-88 166.06c12 33.445 32 49.945 32 49.945-1.084-6.322-0.063-14.108 2.386-22.368 6.856-23.12 23.648-42.277 45.392-52.704 25.958-12.448 48.222-29.85 48.222-52.928 0 55.333 128 78.055 128 78.055 36.667-116-62-166.06-88-166.06z"/>
	</g>
	<path d="m232 8s-14-8-40-8-124.67 50.055-88 166.06c12.5 34.778 32 49.945 32 49.945-50-152.67 81.334-204.67 96-208z" fill="#8D5F3D"/>
	<path d="m232 416c52.755 0 96.872-36.521 108.75-85.627l-8.938-4.469c-2.919-1.46-6.327 0.212-7.184 3.362-11.09 40.761-48.352 70.736-92.627 70.736-44.285 0-81.555-29.99-92.635-70.767-0.852-3.134-4.242-4.797-7.146-3.345l-8.964 4.482c11.876 49.108 55.992 85.628 108.75 85.628z" fill="#FFB04D"/>
	<path d="m232.04 358.68c-32.102 0-60.59-16.711-69.277-40.625-1.508-4.156 0.637-8.742 4.789-10.258 4.172-1.469 8.742 0.641 10.25 4.789 6.434 17.719 28.738 30.094 54.238 30.094 25.371 0 47.648-12.297 54.172-29.906 1.539-4.148 6.156-6.266 10.277-4.719 4.145 1.531 6.258 6.133 4.723 10.281-8.797 23.75-37.242 40.344-69.172 40.344z" fill="#FFB04D"/>
	<circle cx="232.04" cy="366.68" r="23.32" fill="#FFB04D"/>
	<circle cx="232.04" cy="366.68" r="16" fill="#FF6473"/>
	<path d="m224.04 366.68c0-7.447 5.111-13.65 12-15.434-1.286-0.333-2.61-0.566-4-0.566-8.836 0-16 7.163-16 16 0 8.836 7.164 16 16 16 1.39 0 2.714-0.233 4-0.566-6.89-1.784-12-7.987-12-15.434z" fill="#F05467"/>
	<circle cx="236.04" cy="362.68" r="4" fill="#FFA0B5"/>
	<path d="m176 192c-4.4 0-8-3.6-8-8v-8c0-4.4 3.6-8 8-8s8 3.6 8 8v8c0 4.4-3.6 8-8 8z" fill="#623F33"/>
</svg>