<?xml version="1.0" encoding="UTF-8"?>
<svg enable-background="new 0 0 464.005 464.005" version="1.1" viewBox="0 0 464.005 464.005" xml:space="preserve" xmlns="http://www.w3.org/2000/svg">
	<path d="m104 184v4e-3c-17.673 0-32 14.327-32 32 0 3.041 0.56 5.924 1.352 8.711-14.479 3.063-25.352 15.897-25.352 31.289 0 5.534 1.532 10.66 4.004 15.201-7.264 5.866-12.004 14.735-12.004 24.8 0 12.687 7.443 23.551 18.148 28.727-1.33 3.518-2.147 7.29-2.147 11.273 0 17.673 14.327 32 32 32h144v-184h-128z" fill="#5E342E"/>
	<path d="m424 296c0-10.064-4.74-18.933-12.004-24.8 2.472-4.541 4.004-9.667 4.004-15.201 0-15.391-10.873-28.226-25.352-31.289 0.792-2.787 1.352-5.67 1.352-8.711 0-17.673-14.327-32-32-32v-3e-3h-128v184h144c17.673 0 32-14.327 32-32 0-3.983-0.818-7.755-2.147-11.273 10.704-5.176 18.147-16.04 18.147-28.727z" fill="#734A3E"/>
	<path d="m380.38 436.83l-9.188-68.908c-0.875-6.564-3.348-12.664-7.047-17.87 1.714-3.661 0.426-8.109-3.128-10.242l-26.278-15.767c-3.74-2.244-8.588-1.079-10.9 2.62l-0.553 0.885-32.343-11.9c-6.534-2.178-10.94-8.292-10.94-15.179v-25.801l34.461-14.359c17.887-7.453 29.539-24.93 29.539-44.308v-72c0-22.091-17.909-56-40-56h-144c-22.091 0-40 33.909-40 56v72c0 19.378 11.651 36.855 29.538 44.308l34.462 14.36v25.801c0 6.887-4.407 13.001-10.94 15.179l-32.343 11.9-0.553-0.885c-2.312-3.699-7.16-4.864-10.9-2.62l-26.278 15.767c-3.555 2.133-4.842 6.581-3.128 10.242-3.698 5.206-6.172 11.306-7.047 17.87l-9.188 68.908c-1.918 14.388 9.275 27.172 23.789 27.172h249.18c14.515-1e-3 25.708-12.785 23.789-27.173z" fill="#F6B47B"/>
	<path d="m280 274h-96v26.472c0 5.693-3.017 10.852-7.752 13.701 66.925 11.561 103.75-40.173 103.75-40.173z" fill="#E2A071"/>
	<path d="m314.46 260.31l-51.694 21.539c-9.75 4.062-20.207 6.154-30.769 6.154s-21.02-2.092-30.77-6.154l-51.691-21.538c-17.887-7.453-29.538-24.93-29.538-44.308v-72c0-22.091 17.909-56 40-56h144c22.091 0 40 33.909 40 56v72c0 19.377-11.651 36.855-29.538 44.307z" fill="#FDC88E"/>
	<path d="m176 192c-4.4 0-8-3.6-8-8v-8c0-4.4 3.6-8 8-8s8 3.6 8 8v8c0 4.4-3.6 8-8 8z" fill="#623F33"/>
	<path d="m288 192c-4.4 0-8-3.6-8-8v-8c0-4.4 3.6-8 8-8s8 3.6 8 8v8c0 4.4-3.6 8-8 8z" fill="#623F33"/>
	<path d="m232 248.22c-14.223 0-27.527-3.5-36.5-9.605-3.652-2.484-4.602-7.461-2.113-11.113 2.48-3.648 7.461-4.598 11.113-2.113 6.289 4.277 16.57 6.832 27.5 6.832s21.211-2.555 27.5-6.832c3.66-2.492 8.629-1.539 11.113 2.113 2.488 3.652 1.539 8.629-2.113 11.113-8.972 6.105-22.277 9.605-36.5 9.605z" fill="#E2A071"/>
	<path d="m232 64.004s-22.333 28.329-74 59.996c-15.884 9.735-38 30.649-38 50v42.004c0 19.378 11.651 36.855 29.538 44.308l51.69 21.538c2.53 1.054 5.112 1.962 7.727 2.749-22.844-16.711-38.05-31.32-46.96-40.872-6.482-6.949-9.995-16.121-9.995-25.625v-55.992c24.648-27.081 94.857-50.104 96-74.105 0.785-16.475-16-24.001-16-24.001z" fill="#F6B47B"/>
	<path d="m323.84 326.67l-28.786 46.058c-4.386 7.017-12.077 11.28-20.352 11.28h-85.396c-8.275 0-15.966-4.263-20.352-11.28l-28.786-46.058c-2.312-3.699-7.16-4.864-10.9-2.62l-26.278 15.767c-3.837 2.302-5.04 7.305-2.668 11.1l35.682 57.092h192l35.682-57.092c2.372-3.795 1.169-8.797-2.668-11.1l-26.278-15.767c-3.74-2.244-8.589-1.079-10.9 2.62z" fill="#FF8C51"/>
	<rect x="136" y="408" width="192" height="56" fill="#FF7941"/>
	<path d="m120 193v-0.996c0-49.333 112-89.334 112-112v-72s-3.305-7.704-24-8c-10.846-0.156-31.75 4.5-48 16-48.658 34.435-67.999 113.08-75.549 177h35.549z" fill="#5E342E"/>
	<path d="m344 192v0.996h35.549c-7.55-63.914-26.89-142.56-75.549-177-16.25-11.5-37.154-16.156-48-16-20.695 0.296-24 8-24 8v72c0 22.666 112 62.667 112 112z" fill="#734A3E"/>
</svg>