<?xml version="1.0" encoding="UTF-8"?>
<svg enable-background="new 0 0 464.001 464.001" version="1.1" viewBox="0 0 464.001 464.001" xml:space="preserve" xmlns="http://www.w3.org/2000/svg">
	<path d="m418 357.5c-7.5-16-1.059-19.938-5.667-36.833-3-11-9.703-15.446-12-24.667-2.182-8.755 1.63-24.004-0.667-31.333-4.148-13.24-9.351-16.738-12-27.667-2.667-11 4.333-19.333 2-31-2.923-14.618-8.177-20.607-10.333-28.333-4-14.333-2.774-17.918-2.333-29.667 1-26.667-9.17-59.4-17-76-8.864-18.792-20.498-29.281-34.314-35h-93.686v395c110 1 200-32 200-32-0.333-28.667-5.297-23.934-14-42.5z" fill="#734A3E"/>
	<path d="m138.31 37c-13.817 5.719-25.45 16.208-34.314 35-7.83 16.6-18 49.333-17 76 0.44 11.748 1.667 15.333-2.333 29.667-2.156 7.726-7.41 13.716-10.333 28.333-2.333 11.667 4.667 20 2 31-2.649 10.929-7.852 14.427-12 27.667-2.297 7.33 1.515 22.578-0.667 31.333-2.297 9.221-9 13.667-12 24.667-4.608 16.895 1.833 20.833-5.667 36.833-8.703 18.565-13.667 13.833-14 42.5 0 0 90 33 200 32v-395h-93.686z" fill="#623F33"/>
	<path d="m380.38 436.83l-2.984-22.383-6.542-49.067c-1.779-13.344-10.151-24.897-22.277-30.744l-30.861-14.879c-3.003-1.448-6.501-0.135-7.99 2.803l-18.782-6.911c-6.533-2.178-10.94-8.292-10.94-15.179v-25.802l34.461-14.359c17.886-7.453 29.537-24.93 29.537-44.308v-8c13.255 0 24-10.745 24-24s-10.745-24-24-24v-0.067c0.013 0.013 0.027 0.025 0.04 0.038-28.76-28.7-110.5-24.041-112-62.884-1.503 38.856-83.302 34.18-112.04 62.913-13.255 0-24 10.745-24 24s10.745 24 24 24v8c0 19.377 11.651 36.854 29.538 44.308l34.462 14.359v25.801c0 6.887-4.407 13.001-10.94 15.179l-18.782 6.911c-1.489-2.938-4.987-4.251-7.99-2.803l-30.861 14.879c-12.126 5.847-20.498 17.4-22.277 30.744l-6.542 49.067-2.984 22.383c-1.919 14.388 9.273 27.172 23.788 27.172h249.18c14.516 0 25.709-12.784 23.791-27.171z" fill="#FDC88E"/>
	<path d="M184,274v26.468c0,5.693-3.017,10.852-7.752,13.701C243.171,325.732,279.998,274.003,280,274H184z" fill="#F5B97A"/>
	<path d="m380.38 436.83l-9.526-71.451c-1.779-13.344-10.151-24.897-22.277-30.744l-30.861-14.879c-3.107-1.498-6.75-0.046-8.143 3.109-20.236 45.826-54.904 67.136-77.571 77.139-22.667-10.002-57.335-31.313-77.569-77.14-1.393-3.155-5.036-4.606-8.143-3.109l-30.861 14.879c-12.126 5.847-20.498 17.4-22.277 30.744l-9.526 71.451c-1.918 14.387 9.274 27.172 23.79 27.172h249.18c14.514 1e-3 25.707-12.784 23.789-27.171z" fill="#00BEA4"/>
	<circle cx="120" cy="184" r="24" fill="#FDC88E"/>
	<path d="m344 160v-16c0-22.091-17.909-40-40-40h-144c-22.092 0-40 17.909-40 40v16c-13.255 0-24 10.745-24 24s10.745 24 24 24v8c0 19.377 11.651 36.854 29.538 44.308l51.691 21.538c9.75 4.063 20.208 6.154 30.77 6.154s21.019-2.092 30.769-6.154l51.694-21.539c17.887-7.452 29.538-24.929 29.538-44.307v-8c13.255 0 24-10.745 24-24s-10.745-24-24-24z" fill="#FFD7A3"/>
	<path d="m239.9 99l-11.899-7s-20.648 26.536-76 40c-27.75 6.75-32 28-32 28h-1e-3c-13.254 1e-3 -23.999 10.746-23.999 24 0 13.255 10.745 24 24 24v8c0 19.378 11.651 36.855 29.538 44.308l51.69 21.538c2.53 1.054 5.112 1.962 7.727 2.749-22.844-16.711-38.05-31.32-46.96-40.872-6.482-6.95-9.995-16.121-9.995-25.625v-59.098c22-16.333 77-14.333 87.899-60z" fill="#FDC88E"/>
	<path d="m176 192c-4.4 0-8-3.6-8-8v-8c0-4.4 3.6-8 8-8s8 3.6 8 8v8c0 4.4-3.6 8-8 8z" fill="#623F33"/>
	<path d="m288 192c-4.4 0-8-3.6-8-8v-8c0-4.4 3.6-8 8-8s8 3.6 8 8v8c0 4.4-3.6 8-8 8z" fill="#623F33"/>
	<path d="m232 248.22c-14.223 0-27.527-3.5-36.5-9.605-3.652-2.484-4.602-7.461-2.113-11.113 2.48-3.648 7.461-4.598 11.113-2.113 6.289 4.277 16.57 6.832 27.5 6.832s21.211-2.555 27.5-6.832c3.66-2.492 8.629-1.539 11.113 2.113 2.488 3.652 1.539 8.629-2.113 11.113-8.971 6.105-22.277 9.605-36.5 9.605z" fill="#E4B07B"/>
	<path d="m237.11 410.86c38.651-18.172 68.226-48.756 86.091-88.465l-5.484-2.644c-3.107-1.498-6.75-0.046-8.143 3.109-20.235 45.826-54.903 67.136-77.57 77.139-22.667-10.002-57.335-31.313-77.569-77.14-1.393-3.155-5.036-4.606-8.143-3.109l-5.483 2.644c17.865 39.709 47.439 70.293 86.09 88.465l5.105 2.402 5.106-2.401z" fill="#00AB9A"/>
	<path d="m144 429.72c0-8.895-2.965-17.536-8.426-24.558l-39.339-50.579c-1.497 3.403-2.582 7.011-3.086 10.79l-9.526 71.451c-1.918 14.387 9.274 27.172 23.79 27.172h36.587v-34.276z" fill="#00AB9A"/>
	<path d="m320 429.72c0-8.895 2.965-17.536 8.426-24.558l39.339-50.579c1.497 3.403 2.582 7.011 3.086 10.79l9.526 71.451c1.918 14.387-9.274 27.172-23.79 27.172h-36.587v-34.276z" fill="#00AB9A"/>
	<path d="m256.07 0c-16.242 0-23.667 7.577-24.036 7.963-0.369-0.386-7.793-7.963-24.036-7.963-44.25 0-142.5 61-104 152l16 8c28.733-28.733 110.53-24.057 112.04-62.914 1.504 38.857 83.302 34.181 112.04 62.914l16-8c38.5-91-59.75-152-104-152z" fill="#734A3E"/>
	<path d="M208,0C163.75,0,65.5,61,104,152v8h16c6.312-6.312,15.188-11.01,25.21-14.913    C150.5,50.5,201.691,0.667,232,8l0.023-0.046C231.777,7.691,224.385,0,208,0z" fill="#623F33"/>
</svg>