<?xml version="1.0" encoding="UTF-8"?>
<svg enable-background="new 0 0 496.941 496.941" version="1.1" viewBox="0 0 496.941 496.941" xml:space="preserve" xmlns="http://www.w3.org/2000/svg">
	<path d="m184.47 253.74h19.576v90.353c0 10.541 9.035 19.576 19.576 19.576h48.941c10.541 0 19.576-9.035 19.576-19.576v-90.353h19.576c4.518 0 7.529-3.012 7.529-7.529v-105.41c0-24.847-18.071-44.424-39.906-44.424h-62.494c-21.835 0-39.906 20.329-39.906 44.424v106.16c2e-3 3.764 3.767 6.776 7.532 6.776zm7.529-112.94c0-16.565 11.294-29.365 24.847-29.365h62.494c13.553 0 24.847 13.553 24.847 29.365v98.635h-12.047v-51.2c0-4.518-3.012-7.529-7.529-7.529s-7.529 3.012-7.529 7.529v157.36c0 2.259-2.259 4.518-4.518 4.518h-16.565v-100.14c0-4.518-3.012-7.529-7.529-7.529s-7.529 3.012-7.529 7.529v99.388h-17.318c-2.259 0-4.518-2.259-4.518-4.518v-157.36c0-4.518-3.012-7.529-7.529-7.529s-7.529 3.012-7.529 7.529v51.2h-12.048v-97.882z"/>
	<path d="m248.47 88.094c24.094 0 44.424-19.576 44.424-44.424-1e-3 -24.094-20.33-43.67-44.424-43.67s-44.424 19.576-44.424 44.424c0 24.094 20.329 43.67 44.424 43.67zm0-73.035c15.812 0 29.365 12.8 29.365 29.365 0 15.812-12.8 29.365-29.365 29.365s-29.365-13.553-29.365-29.365c0-16.565 13.553-29.365 29.365-29.365z"/>
	<path d="m85.082 106.16c27.859 0 49.694-22.588 49.694-49.694 0.753-27.106-21.835-48.941-49.694-48.941s-49.694 22.588-49.694 49.694 22.588 48.941 49.694 48.941zm0-83.577c19.576 0 35.388 15.059 35.388 34.635 0 18.824-15.812 34.635-34.635 34.635s-34.635-15.812-34.635-34.635c-0.753-19.576 15.059-34.635 33.882-34.635z"/>
	<path d="m411.86 106.16c27.859 0 49.694-22.588 49.694-49.694s-22.588-49.695-49.694-49.695-50.447 22.588-50.447 50.447c0 27.106 22.588 48.942 50.447 48.942zm0-83.577c18.824 0 34.635 15.812 34.635 34.635s-15.812 34.635-34.635 34.635-35.388-15.812-35.388-34.635c0-19.576 15.811-34.635 35.388-34.635z"/>
	<path d="m461.55 298.92v-1.506h24.094c4.518 0 7.529-3.012 7.529-7.529v-121.98c0-27.859-20.329-50.447-45.176-50.447h-72.282c-24.847 0-45.176 22.588-45.176 50.447v121.98c0 4.518 3.012 7.529 7.529 7.529h23.341v85.835c0 12.047 9.788 21.835 21.835 21.835h56.471c12.047 0 21.835-9.788 21.835-21.835v-63.246c13.553 15.059 20.329 30.871 20.329 46.682 0 63.247-104.66 115.2-233.41 115.2s-233.41-51.953-233.41-115.2c0-15.812 6.776-31.624 20.329-46.682v63.247c0 12.047 9.788 21.835 21.835 21.835h56.471c12.047 0 21.835-9.788 21.835-21.835v-85.835h24.094c4.518 0 7.529-3.012 7.529-7.529v-121.98c0-27.859-20.329-50.447-45.177-50.447h-73.033c-24.847 0-45.176 22.588-45.176 50.447v121.98c0 4.518 3.012 7.529 7.529 7.529h24.094v1.506c-23.341 20.33-35.388 43.671-35.388 67.765 0 73.035 109.18 130.26 248.47 130.26s248.47-57.224 248.47-130.26c-1e-3 -24.094-12.048-47.435-35.389-67.764zm-9.035-84.33c-4.518 0-7.529 3.012-7.529 7.529v161.13h1.506c0 3.765-3.012 6.776-6.776 6.776h-21.082v-96.377c0-4.518-3.012-7.529-7.529-7.529-4.518 0-7.529 3.012-7.529 7.529v96.376h-21.082c-3.765 0-6.776-3.012-6.776-6.776v-161.13c0-4.518-3.012-7.529-7.529-7.529s-7.529 3.012-7.529 7.529v60.235h-16.565v-114.45c0-19.576 13.553-35.388 30.118-35.388h72.282c16.565 0 30.118 15.812 30.118 35.388v114.45h-16.565v-60.235c-4e-3 -4.518-3.016-7.53-7.533-7.53zm-432.94 67.765v-114.45c0-19.576 13.553-35.388 30.118-35.388h72.282c16.565 0 30.118 15.812 30.118 35.388v114.45h-16.565v-60.235c0-4.518-3.012-7.529-7.529-7.529-4.518 0-7.529 3.012-7.529 7.529v161.13c0 3.765-3.012 6.776-6.776 6.776h-21.083v-96.377c0-4.518-3.012-7.529-7.529-7.529s-7.529 3.012-7.529 7.529v96.376h-20.33c-3.765 0-6.776-3.012-6.776-6.776v-161.13c0-4.518-3.012-7.529-7.529-7.529s-7.529 3.012-7.529 7.529v60.235h-15.814z"/>
</svg>