<?xml version="1.0" encoding="UTF-8"?>
<!DOCTYPE svg  PUBLIC '-//W3C//DTD SVG 1.1//EN'  'http://www.w3.org/Graphics/SVG/1.1/DTD/svg11.dtd'>
<svg enable-background="new 0 0 95.333 95.332" version="1.1" viewBox="0 0 95.333 95.332" xml:space="preserve" xmlns="http://www.w3.org/2000/svg">
	<path d="m30.512 43.939c-2.348-0.676-4.696-1.019-6.98-1.019-3.527 0-6.47 0.806-8.752 1.793 2.2-8.054 7.485-21.951 18.013-23.516 0.975-0.145 1.774-0.85 2.04-1.799l2.301-8.23c0.194-0.696 0.079-1.441-0.318-2.045s-1.035-1.007-1.75-1.105c-0.777-0.106-1.569-0.16-2.354-0.16-12.637 0-25.152 13.19-30.433 32.076-3.1 11.08-4.009 27.738 3.627 38.223 4.273 5.867 10.507 9 18.529 9.313 0.033 1e-3 0.065 2e-3 0.098 2e-3 9.898 0 18.675-6.666 21.345-16.209 1.595-5.705 0.874-11.688-2.032-16.851-2.875-5.105-7.61-8.826-13.334-10.473z"/>
	<path d="m92.471 54.413c-2.875-5.106-7.61-8.827-13.334-10.474-2.348-0.676-4.696-1.019-6.979-1.019-3.527 0-6.471 0.806-8.753 1.793 2.2-8.054 7.485-21.951 18.014-23.516 0.975-0.145 1.773-0.85 2.04-1.799l2.301-8.23c0.194-0.696 0.079-1.441-0.318-2.045-0.396-0.604-1.034-1.007-1.75-1.105-0.776-0.106-1.568-0.16-2.354-0.16-12.637 0-25.152 13.19-30.434 32.076-3.099 11.08-4.008 27.738 3.629 38.225 4.272 5.866 10.507 9 18.528 9.312 0.033 1e-3 0.065 2e-3 0.099 2e-3 9.897 0 18.675-6.666 21.345-16.209 1.593-5.705 0.871-11.689-2.034-16.851z"/>
</svg>