<?xml version="1.0" encoding="UTF-8"?>
<!DOCTYPE svg  PUBLIC '-//W3C//DTD SVG 1.1//EN'  'http://www.w3.org/Graphics/SVG/1.1/DTD/svg11.dtd'>
<svg enable-background="new 0 0 380 380" version="1.1" viewBox="0 0 380 380" xml:space="preserve" xmlns="http://www.w3.org/2000/svg">
	<path d="m190 0c-104.77 0-190 85.234-190 190s85.232 190 190 190c104.77 0 190-85.232 190-190 0-104.77-85.233-190-190-190zm79.9 316.89l-8.188-14.084c-0.945-1.625-2.703-2.635-4.587-2.635-0.938 0-1.828 0.242-2.648 0.719-1.224 0.711-2.096 1.854-2.458 3.222-0.358 1.367-0.169 2.793 0.542 4.017l8.199 14.102c-18.317 9.843-38.906 15.982-60.76 17.43v-19.894c0-5.521-4.479-10-10-10-5.522 0-10 4.479-10 10v19.891c-21.531-1.424-41.834-7.411-59.949-17.002l8.111-14.149c0.703-1.226 0.887-2.651 0.517-4.018-0.37-1.364-1.249-2.502-2.475-3.205-0.814-0.467-1.697-0.704-2.624-0.704-1.896 0-3.66 1.021-4.603 2.663l-8.102 14.133c-18.069-11.266-33.583-26.26-45.447-43.908l17.188-9.923c4.782-2.761 6.421-8.877 3.659-13.66-2.761-4.781-8.877-6.421-13.659-3.658l-17.212 9.937c-9.056-18.349-14.466-38.8-15.284-60.41l16.33-0.05c1.414-4e-3 2.741-0.559 3.737-1.561 0.996-1.003 1.543-2.334 1.538-3.748-9e-3 -2.91-2.384-5.277-5.293-5.277l-16.348 0.05c0.699-21.949 6.136-42.72 15.319-61.327l17.212 9.937c1.574 0.909 3.293 1.341 4.989 1.341 3.456 0 6.818-1.793 8.67-5.001 2.762-4.783 1.123-10.899-3.659-13.66l-17.188-9.923c11.693-17.397 26.933-32.215 44.671-43.424l8.188 14.084c0.474 0.814 1.124 1.463 1.935 1.929 1.618 0.926 3.669 0.936 5.299-0.013 1.224-0.711 2.097-1.856 2.458-3.223 0.362-1.366 0.169-2.791-0.541-4.013l-8.198-14.102c18.319-9.843 38.907-15.984 60.76-17.43v19.889c0 5.522 4.478 10 10 10 5.521 0 10-4.478 10-10v-19.889c21.53 1.424 41.832 7.41 59.947 17.001l-8.111 14.149c-1.451 2.532-0.572 5.773 1.959 7.224 0.813 0.466 1.696 0.703 2.624 0.703 1.897 0 3.66-1.02 4.6-2.661l8.104-14.135c18.071 11.265 33.585 26.261 45.449 43.909l-17.188 9.923c-4.783 2.761-6.421 8.877-3.659 13.66 1.854 3.208 5.214 5.001 8.67 5.001 1.696 0 3.416-0.432 4.989-1.341l17.212-9.938c9.058 18.348 14.466 38.8 15.284 60.41l-16.33 0.05c-1.414 4e-3 -2.741 0.559-3.735 1.561-0.996 1.003-1.543 2.333-1.538 3.747 6e-3 1.887 1.026 3.642 2.668 4.583 0.794 0.455 1.699 0.693 2.623 0.693h0.017l16.333-0.05c-0.699 21.949-6.136 42.721-15.319 61.327l-17.212-9.938c-4.784-2.762-10.896-1.122-13.659 3.66-2.762 4.782-1.124 10.898 3.659 13.659l17.188 9.923c-11.697 17.397-26.935 32.216-44.674 43.427z"/>
	<path d="m263.91 135.78l-64.142 35.588c-2.92-1.533-6.237-2.412-9.767-2.412-3.528 0-6.846 0.878-9.766 2.412l-64.141-35.588c-6.064-3.366-13.711-1.176-17.078 4.889-3.364 6.065-1.176 13.711 4.891 17.077l65.443 36.311c1.891 9.686 10.412 16.997 20.65 16.997s18.76-7.312 20.65-16.997l65.441-36.311c6.066-3.365 8.254-11.011 4.891-17.077-3.36-6.066-11.005-8.255-17.072-4.889z"/>
</svg>